HIERARCHY
ROOT Hips
{
 OFFSET 0.000000 0.000000 0.000000
 CHANNELS 6 Xposition Yposition Zposition Yrotation Xrotation Zrotation
 JOINT Chest
 {
  OFFSET 0.000000 9.585900 0.002600
  CHANNELS 3 Yrotation Xrotation Zrotation
  JOINT Chest2
  {
   OFFSET 0.000000 9.601200 -0.005300
   CHANNELS 3 Yrotation Xrotation Zrotation
   JOINT Chest3
   {
    OFFSET 0.000000 9.561800 0.000000
    CHANNELS 3 Yrotation Xrotation Zrotation
    JOINT Chest4
    {
     OFFSET 0.000000 9.552100 0.000000
     CHANNELS 3 Yrotation Xrotation Zrotation
     JOINT Neck
     {
      OFFSET 0.000000 14.453000 0.000000
      CHANNELS 3 Yrotation Xrotation Zrotation
      JOINT Head
      {
       OFFSET 0.000000 8.936500 -0.011300
       CHANNELS 3 Yrotation Xrotation Zrotation
       End Site
       {
        OFFSET 0.000000 17.073600 -0.006000
       }
      }
     }
     JOINT RightCollar
     {
      OFFSET -2.921100 9.558500 0.000000
      CHANNELS 3 Yrotation Xrotation Zrotation
      JOINT RightShoulder
      {
       OFFSET -13.519700 0.000000 0.000000
       CHANNELS 3 Yrotation Xrotation Zrotation
       JOINT RightElbow
       {
        OFFSET 0.000000 -29.696600 0.000000
        CHANNELS 3 Yrotation Xrotation Zrotation
        JOINT RightWrist
        {
         OFFSET 0.000000 -24.004700 0.000000
         CHANNELS 3 Yrotation Xrotation Zrotation
         End Site
         {
          OFFSET 0.000000 -17.728500 0.000000
         }
        }
       }
      }
     }
     JOINT LeftCollar
     {
      OFFSET 2.921100 9.558500 0.000000
      CHANNELS 3 Yrotation Xrotation Zrotation
      JOINT LeftShoulder
      {
       OFFSET 13.519700 0.000000 0.000000
       CHANNELS 3 Yrotation Xrotation Zrotation
       JOINT LeftElbow
       {
        OFFSET 0.000000 -29.696600 0.000000
        CHANNELS 3 Yrotation Xrotation Zrotation
        JOINT LeftWrist
        {
         OFFSET 0.000000 -24.004700 0.000000
         CHANNELS 3 Yrotation Xrotation Zrotation
         End Site
         {
          OFFSET 0.000000 -17.728500 0.000000
         }
        }
       }
      }
     }
    }
   }
  }
 }
 JOINT RightHip
 {
  OFFSET -7.771700 -0.012900 -0.001300
  CHANNELS 3 Yrotation Xrotation Zrotation
  JOINT RightKnee
  {
   OFFSET 0.000000 -40.869800 0.001200
   CHANNELS 3 Yrotation Xrotation Zrotation
   JOINT RightAnkle
   {
    OFFSET 0.000000 -39.717900 0.002100
    CHANNELS 3 Yrotation Xrotation Zrotation
    JOINT RightToe
    {
     OFFSET 0.000000 -4.965400 11.033500
     CHANNELS 3 Yrotation Xrotation Zrotation
     End Site
     {
      OFFSET 0.000000 -1.423100 5.872300
     }
    }
   }
  }
 }
 JOINT LeftHip
 {
  OFFSET 7.771700 -0.012900 -0.001300
  CHANNELS 3 Yrotation Xrotation Zrotation
  JOINT LeftKnee
  {
   OFFSET 0.000000 -40.869800 0.001200
   CHANNELS 3 Yrotation Xrotation Zrotation
   JOINT LeftAnkle
   {
    OFFSET 0.000000 -39.717900 0.002100
    CHANNELS 3 Yrotation Xrotation Zrotation
    JOINT LeftToe
    {
     OFFSET 0.000000 -4.965400 11.033500
     CHANNELS 3 Yrotation Xrotation Zrotation
     End Site
     {
      OFFSET 0.000000 -1.423100 5.872300
     }
    }
   }
  }
 }
}
MOTION
Frames: 12
Frame Time: 0.008333
-12.213973 50.886511 34.814180 -178.854641 -34.381106 -9.974097 0.543054 12.987801 3.582414 0.217889 7.427708 2.091677 0.390244 9.172937 2.594195 0.211434 7.478219 2.120680 3.125821 21.132914 -0.005799 3.344164 -3.178752 -0.718627 -3.868602 0.196278 -4.184141 -11.941667 -8.680446 7.295749 29.985830 -59.984913 -12.316612 9.772844 -8.844512 -21.127212 -9.724037 2.904702 -1.347703 4.629607 -1.738652 -5.304719 -54.014193 -66.679709 63.224792 11.104964 -21.236735 -0.529115 -10.310905 -32.768927 3.298019 28.140912 81.226942 21.902703 -4.756402 -8.327829 -0.331022 0.009543 -2.853344 0.871501 -13.305794 -45.605555 11.744890 177.264396 77.615040 173.053181 -1.236344 -18.961283 1.822952 -0.005922 0.020996 -0.041550
-12.192024 50.878635 34.841269 -178.870055 -34.401640 -10.027050 0.496069 13.076399 3.635809 0.238555 7.428931 2.095578 0.372963 9.247351 2.620166 0.241955 7.435293 2.102558 3.154889 21.085508 -0.031925 3.387761 -3.239782 -0.755338 -3.815856 0.106820 -4.204541 -12.006850 -8.566828 7.265411 30.835505 -59.838112 -13.068614 9.856368 -8.950078 -21.323330 -9.769113 2.877548 -1.375408 4.639288 -1.754393 -5.267737 -53.967331 -66.619334 63.123290 11.099668 -21.434709 -0.432543 -9.994303 -32.527628 3.135805 28.780028 81.281222 22.672139 -4.787336 -8.349503 0.424707 0.080188 -2.536632 0.212269 -13.367535 -45.594369 11.840085 177.284716 77.620298 173.094800 -1.214687 -18.938734 1.795032 -0.009499 0.023708 -0.040414
-12.179247 50.865640 34.876581 -178.973974 -34.376623 -9.984456 0.495599 13.116230 3.637070 0.258002 7.428715 2.098912 0.366299 9.283903 2.634509 0.258055 7.428699 2.098877 3.197902 21.047792 -0.055997 3.439296 -3.281346 -0.791000 -3.765283 0.011251 -4.240172 -12.047470 -8.460410 7.250951 31.760644 -59.672999 -13.895439 9.948559 -9.059060 -21.527305 -9.780289 2.829098 -1.394005 4.623614 -1.752028 -5.233855 -53.878831 -66.568444 62.976478 11.109817 -21.696280 -0.308769 -9.630580 -32.302403 2.939876 28.632089 81.303158 22.592553 -4.877028 -8.775417 1.862261 0.102420 -1.923515 -0.797491 -13.330259 -45.645237 11.887235 177.298684 77.638457 173.119910 -1.202070 -18.909940 1.779724 -0.010466 0.028515 -0.038457
-12.159170 50.845674 34.928480 -179.216011 -34.260564 -9.918870 0.616206 13.040842 3.690558 0.261355 7.440365 2.104433 0.370648 9.298511 2.641556 0.261388 7.440392 2.104429 3.252086 21.020004 -0.076818 3.465412 -3.334667 -0.827482 -3.703449 -0.090072 -4.279288 -12.102487 -8.346413 7.240488 32.747620 -59.509198 -14.761042 10.039222 -9.158301 -21.737350 -9.776039 2.771129 -1.407452 4.597907 -1.736982 -5.199094 -53.778420 -66.520693 62.815749 11.149312 -22.041117 -0.162414 -9.318129 -32.157827 2.847808 28.187219 81.261215 22.159781 -4.986553 -9.447686 3.631203 -0.003249 -1.179291 -1.879357 -13.284622 -45.799380 12.034523 177.353495 77.650726 173.211011 -1.158796 -18.873484 1.726280 -0.006377 0.028451 -0.032362
-12.142646 50.831239 34.976374 -179.389704 -34.168191 -9.881475 0.718609 12.963941 3.741644 0.262831 7.445755 2.107099 0.334013 9.354779 2.656138 0.263364 7.451360 2.109420 3.312108 20.998034 -0.096452 3.552631 -3.347387 -0.862091 -3.660162 -0.203082 -4.315849 -12.142644 -8.227497 7.224719 33.758240 -59.348981 -15.626115 10.124833 -9.242261 -21.957420 -9.774952 2.714541 -1.419399 4.580053 -1.713395 -5.164039 -53.681576 -66.478380 62.657724 11.233035 -22.495159 -0.001004 -9.205764 -31.986279 2.722039 27.739270 81.165514 21.696232 -5.032098 -10.119852 5.229278 -0.066163 -0.546476 -2.684733 -13.301676 -45.913409 12.191967 177.386420 77.673150 173.238029 -1.137330 -18.826174 1.701040 -0.009852 0.024619 -0.033037
-12.128450 50.823845 35.019001 -179.505043 -34.110519 -9.868784 0.774381 12.932493 3.783470 0.202394 7.516587 2.113642 0.354221 9.349063 2.658123 0.263276 7.464099 2.113754 3.374585 20.976265 -0.115842 3.643498 -3.355585 -0.895766 -3.696374 -0.344745 -4.346759 -12.103488 -8.094903 7.199955 34.768522 -59.193057 -16.468904 10.204152 -9.316984 -22.189267 -9.774248 2.655335 -1.430030 4.566413 -1.674474 -5.127762 -53.578246 -66.446628 62.493283 11.371010 -23.093076 0.178398 -9.304960 -31.786209 2.548358 26.983255 81.106723 20.918389 -4.719713 -10.805343 6.327898 -0.093560 -0.047879 -3.054602 -13.457973 -45.971614 12.416069 177.513203 77.690582 173.267360 -1.124046 -18.777491 1.684077 -0.011310 0.017251 -0.031389
-12.120324 50.823403 35.055716 -179.562574 -34.089403 -9.849760 0.683790 13.042403 3.766441 0.236696 7.497662 2.115526 0.369436 9.347095 2.657690 0.259998 7.479278 2.117325 3.439392 20.951102 -0.134245 3.717668 -3.381402 -0.930383 -3.681441 -0.482214 -4.387215 -12.115899 -7.965168 7.190414 35.773399 -59.045125 -17.287389 10.276665 -9.387951 -22.438251 -9.770782 2.593981 -1.434472 4.552438 -1.618049 -5.089446 -53.478374 -66.429169 62.326844 11.548422 -23.860728 0.414811 -9.573016 -31.555353 2.328844 26.068716 81.134189 19.994062 -4.246248 -11.633965 6.853383 -0.096949 0.413855 -2.994185 -13.544725 -45.996300 12.502876 177.540579 77.725020 173.254241 -1.097520 -18.722872 1.644374 -0.006736 0.011415 -0.025787
-12.114732 50.828672 35.089491 -179.574959 -34.086489 -9.829370 0.588607 13.139833 3.722042 0.251516 7.494697 2.119918 0.358928 9.366424 2.660825 0.251487 7.494697 2.119891 3.523346 20.881858 -0.172096 3.776660 -3.369405 -0.935798 -3.663767 -0.625213 -4.433988 -12.127646 -7.824354 7.190667 36.787876 -58.910044 -18.095261 10.343106 -9.459952 -22.723195 -9.765669 2.538094 -1.432998 4.541217 -1.546611 -5.045859 -53.438992 -66.414156 62.211316 11.744233 -24.822623 0.775108 -9.931302 -31.321933 2.119214 25.481322 81.202482 19.401443 -3.943337 -12.488100 7.059248 -0.092058 0.791160 -2.719049 -13.643317 -45.997352 12.545895 177.545946 77.769173 173.211595 -1.068747 -18.658113 1.607482 -0.004144 0.002111 -0.025105
-12.107680 50.839022 35.122215 -179.531792 -34.088053 -9.829060 0.473534 13.234699 3.674850 0.236891 7.508485 2.121096 0.340735 9.383752 2.662016 0.236858 7.508458 2.121066 3.619595 20.813159 -0.210472 3.830121 -3.357286 -0.936524 -3.639701 -0.771574 -4.487083 -12.145807 -7.668912 7.196730 37.856149 -58.780211 -18.930547 10.398165 -9.544280 -23.056551 -9.757586 2.490777 -1.428095 4.532418 -1.461504 -4.990458 -53.493280 -66.383119 62.186331 11.946846 -26.013950 1.314715 -10.298829 -31.118136 1.956491 25.595846 81.248958 19.484839 -3.856599 -13.183351 7.147683 -0.094881 1.005959 -2.375110 -13.778749 -45.990799 12.544866 177.343076 77.813653 172.991402 -1.054709 -18.582995 1.532392 0.007117 -0.008839 -0.014505
-12.092632 50.855513 35.153667 -179.478352 -34.104756 -9.857130 0.362048 13.351240 3.654144 0.217176 7.519794 2.120359 0.316148 9.398027 2.660756 0.217188 7.519794 2.120350 3.700104 20.790636 -0.225898 3.909820 -3.383557 -0.966951 -3.605463 -0.921157 -4.546018 -12.178522 -7.499015 7.207309 39.041240 -58.637365 -19.855790 10.441032 -9.654881 -23.435258 -9.749042 2.451436 -1.420976 4.524061 -1.364267 -4.918540 -53.640614 -66.332545 62.260219 12.106547 -27.434201 2.060407 -10.616302 -30.932655 1.872633 26.405971 81.247183 20.222539 -3.841708 -13.717691 7.158576 -0.095316 1.096408 -2.005105 -13.934285 -45.954501 12.578021 177.087748 77.860836 172.717726 -1.053919 -18.513495 1.471194 0.010503 -0.019737 -0.020328
-12.061308 50.868657 35.199256 -179.538271 -34.043926 -9.891426 0.351919 13.379556 3.706604 0.193282 7.527823 2.117999 0.286142 9.408240 2.657318 0.193309 7.527847 2.118000 3.784437 20.770054 -0.237617 4.000822 -3.395240 -0.993361 -3.560019 -1.067553 -4.611414 -12.224140 -7.318600 7.225763 40.411360 -58.465054 -20.944348 10.483750 -9.798165 -23.850434 -9.746326 2.418154 -1.415119 4.516946 -1.255165 -4.829041 -53.894631 -66.259679 62.461921 12.156701 -29.017454 3.031488 -10.870200 -30.882629 1.940555 27.395505 81.213835 21.123399 -3.804955 -14.037951 7.115370 -0.086005 1.057284 -1.663956 -14.095289 -45.995871 12.752974 176.856506 77.904214 172.484997 -1.058372 -18.454925 1.392296 0.011273 -0.019490 -0.015772
-12.021492 50.873813 35.262149 -179.658407 -33.865622 -9.916627 0.383440 13.285906 3.785213 0.165684 7.531590 2.113892 0.251491 9.413137 2.651571 0.165731 7.531596 2.113873 3.839618 20.830767 -0.205497 4.140468 -3.455481 -1.066996 -3.507171 -1.204732 -4.681613 -12.268133 -7.129596 7.252752 42.022038 -58.246767 -22.256576 10.543016 -9.969663 -24.308301 -9.753145 2.388400 -1.413806 4.507693 -1.131487 -4.726829 -54.283183 -66.144465 62.840087 12.086595 -30.681381 4.219400 -11.102393 -31.044786 2.116130 28.188778 81.191032 21.863195 -3.773230 -14.139367 7.005151 -0.061493 0.931756 -1.351288 -14.270825 -46.167332 13.000876 176.569761 77.943465 172.217961 -1.066867 -18.392302 1.315459 0.007769 -0.012508 -0.020990
